<svg xmlns="http://www.w3.org/2000/svg" xmlns:xlink="http://www.w3.org/1999/xlink" width="13.582" height="12.763" viewBox="0 0 13.582 12.763">
  <defs>
    <clipPath id="clip-path">
      <rect id="Rectangle_74" data-name="Rectangle 74" width="13.582" height="12.763" transform="translate(0 0)" fill="#f6a141"/>
    </clipPath>
  </defs>
  <g id="Group_5" data-name="Group 5" transform="translate(0 0)">
    <g id="Group_4" data-name="Group 4" transform="translate(0 0)" clip-path="url(#clip-path)">
      <path id="Path_28" data-name="Path 28" d="M13.641,6.068a.742.742,0,0,0-.05-.092L13.57,5.94a1.351,1.351,0,0,0-.136-.185,1.243,1.243,0,0,0-.516-.351L2.084.4a1.263,1.263,0,0,0-1.692.614,1.262,1.262,0,0,0-.046.955,1.234,1.234,0,0,0,.663.738l8.456,3.9-8.458,3.9a1.232,1.232,0,0,0-.661.737,1.266,1.266,0,0,0,1.737,1.57l10.822-5,.02-.007a1.266,1.266,0,0,0,.645-.533l.023-.04a.8.8,0,0,0,.049-.088,1.215,1.215,0,0,0,.118-.533,1.235,1.235,0,0,0-.117-.547" transform="translate(-0.225 -0.225)" fill="#f6a141"/>
      <path id="Path_29" data-name="Path 29" d="M13.641,6.068a.742.742,0,0,0-.05-.092L13.57,5.94a1.351,1.351,0,0,0-.136-.185,1.243,1.243,0,0,0-.516-.351L2.084.4a1.263,1.263,0,0,0-1.692.614,1.262,1.262,0,0,0-.046.955,1.234,1.234,0,0,0,.663.738l8.456,3.9-8.458,3.9a1.232,1.232,0,0,0-.661.737,1.266,1.266,0,0,0,1.737,1.57l10.822-5,.02-.007a1.266,1.266,0,0,0,.645-.533l.023-.04a.8.8,0,0,0,.049-.088,1.215,1.215,0,0,0,.118-.533A1.235,1.235,0,0,0,13.641,6.068Z" transform="translate(-0.225 -0.225)" fill="#f6a141"/>
    </g>
  </g>
</svg>
